# xmcd
#
# Track frame offsets:
#	150
#	17908
#	44605
#
# Disc length: 796 seconds
# Revision: 0
# Processed by: cddbd v1.5.2PL0 Copyright (c) Steve Scherf et al.
# Submitted via: dBpowerAMP V12.0
#
DISCID=21031a03
DTITLE=Oliver Frank - Italiensiche Sehnsucht
DYEAR=1996
DGENRE=Discofox
TTITLE0=Italienische Sehnsucht
TTITLE1=Italienische Sehnsucht (Maxi-Version)
TTITLE2=Was geht hier ab
EXTD=
EXTT0=
EXTT1=
EXTT2=
PLAYORDER=
